<svg xmlns="http://www.w3.org/2000/svg" width="709" height="670" viewBox="0 0 709 670">
  <rect width="709" height="670" fill="white"/>
  <text x="354.5" y="22" text-anchor="middle" font-family="monospace" font-size="13" font-weight="bold" fill="#1a1a2e">RadialInletArray — parameters</text>
<polyline points="522.29,378.19 522.08,369.97 521.48,361.76 520.47,353.60 519.06,345.49 517.26,337.46 515.07,329.53 512.49,321.72 509.53,314.05 506.19,306.52 502.49,299.18 498.44,292.02 494.04,285.07 489.30,278.34 484.24,271.85 478.86,265.62 473.19,259.67 467.23,253.99 461.00,248.62 454.52,243.56 447.79,238.82 440.84,234.42 433.68,230.36 426.33,226.66 418.81,223.33 411.14,220.37 403.32,217.79 395.39,215.59 387.37,213.79 379.26,212.39 371.10,211.38 362.89,210.77 354.67,210.57 346.44,210.77 338.24,211.38 330.07,212.39 321.97,213.79 313.94,215.59 306.01,217.79 298.20,220.37 290.52,223.33 283.00,226.66 275.65,230.36 268.49,234.42 261.54,238.82 254.82,243.56 248.33,248.62 242.10,253.99 236.14,259.67 230.47,265.62 225.10,271.85 220.03,278.34 215.30,285.07 210.90,292.02 206.84,299.18 203.14,306.52 199.81,314.05 196.85,321.72 194.27,329.53 192.07,337.46 190.27,345.49 188.86,353.60 187.85,361.76 187.25,369.97 187.05,378.19" fill="none" stroke="#1a1a2e" stroke-width="1.5"/>
<polyline points="187.25,386.42 187.85,394.62 188.86,402.79 190.27,410.89 192.07,418.92 194.27,426.85 196.85,434.66 199.81,442.34 203.14,449.86 206.84,457.21 210.90,464.36 215.30,471.31 220.03,478.04 225.10,484.53 230.47,490.76 236.14,496.72 242.10,502.39 248.33,507.76 254.82,512.82 261.54,517.56 268.49,521.96 275.65,526.02 283.00,529.72 290.52,533.05 298.20,536.01 306.01,538.59 313.94,540.79 321.97,542.59 330.07,544.00 338.24,545.00 346.44,545.61 354.67,545.81 362.89,545.61 371.10,545.00 379.26,544.00 387.37,542.59 395.39,540.79 403.32,538.59 411.14,536.01 418.81,533.05 426.33,529.72 433.68,526.02 440.84,521.96 447.79,517.56 454.52,512.82 461.00,507.76 467.23,502.39 473.19,496.72 478.86,490.76 484.24,484.53 489.30,478.04 494.04,471.31 498.44,464.36 502.49,457.21 506.19,449.86 509.53,442.34 512.49,434.66 515.07,426.85 517.26,418.92 519.06,410.89 520.47,402.79 521.48,394.62 522.08,386.42 522.29,378.19" fill="none" stroke="#aaa" stroke-width="1.0" stroke-dasharray="6,4"/>
<polygon points="530.67,386.57 530.67,369.81 572.57,361.43 572.57,394.95" fill="#d0d8ff" stroke="#1a1a2e" stroke-width="1.5" stroke-linejoin="round"/>
<polygon points="516.87,309.38 509.60,294.28 543.72,268.54 558.26,298.75" fill="#d0d8ff" stroke="#1a1a2e" stroke-width="1.5" stroke-linejoin="round"/>
<polygon points="470.95,245.81 457.85,235.36 477.42,197.37 503.63,218.28" fill="#d0d8ff" stroke="#1a1a2e" stroke-width="1.5" stroke-linejoin="round"/>
<polygon points="402.00,208.47 385.66,204.74 386.81,162.02 419.50,169.48" fill="#d0d8ff" stroke="#1a1a2e" stroke-width="1.5" stroke-linejoin="round"/>
<polygon points="323.67,204.74 307.33,208.47 289.84,169.48 322.52,162.02" fill="#d0d8ff" stroke="#1a1a2e" stroke-width="1.5" stroke-linejoin="round"/>
<polygon points="251.48,235.36 238.38,245.81 205.70,218.28 231.91,197.37" fill="#d0d8ff" stroke="#1a1a2e" stroke-width="1.5" stroke-linejoin="round"/>
<polygon points="199.73,294.28 192.46,309.38 151.07,298.75 165.61,268.54" fill="#d0d8ff" stroke="#1a1a2e" stroke-width="1.5" stroke-linejoin="round"/>
<polygon points="178.67,369.81 178.67,386.57 136.76,394.95 136.76,361.43" fill="#d0d8ff" stroke="#1a1a2e" stroke-width="1.5" stroke-linejoin="round"/>
<line x1="363.05" y1="207.19" x2="363.05" y2="217.19" stroke="#e63946" stroke-width="1"/>
<line x1="346.29" y1="207.19" x2="346.29" y2="217.19" stroke="#e63946" stroke-width="1"/>
<line x1="363.05" y1="212.19" x2="346.29" y2="212.19" stroke="#e63946" stroke-width="1"/>
<text x="354.67" y="226.19" text-anchor="middle" dominant-baseline="middle" font-family="monospace" font-size="11" fill="#e63946">W_IN=200µm</text>
<line x1="371.43" y1="145.29" x2="371.43" y2="155.29" stroke="#e63946" stroke-width="1"/>
<line x1="337.90" y1="145.29" x2="337.90" y2="155.29" stroke="#e63946" stroke-width="1"/>
<line x1="371.43" y1="150.29" x2="337.90" y2="150.29" stroke="#e63946" stroke-width="1"/>
<text x="354.67" y="142.29" text-anchor="middle" dominant-baseline="middle" font-family="monospace" font-size="11" fill="#e63946">W_OUT=400µm</text>
<line x1="346.90" y1="160.29" x2="356.90" y2="160.29" stroke="#e63946" stroke-width="1"/>
<line x1="346.90" y1="202.19" x2="356.90" y2="202.19" stroke="#e63946" stroke-width="1"/>
<line x1="351.90" y1="160.29" x2="351.90" y2="202.19" stroke="#e63946" stroke-width="1"/>
<text x="361.90" y="181.24" text-anchor="start" dominant-baseline="middle" font-family="monospace" font-size="11" fill="#e63946" transform="rotate(-90,361.90,181.24)">L=500µm</text>
<line x1="354.67" y1="389.19" x2="354.67" y2="399.19" stroke="#e63946" stroke-width="1"/>
<line x1="522.29" y1="389.19" x2="522.29" y2="399.19" stroke="#e63946" stroke-width="1"/>
<line x1="354.67" y1="394.19" x2="522.29" y2="394.19" stroke="#e63946" stroke-width="1"/>
<text x="438.48" y="408.19" text-anchor="middle" dominant-baseline="middle" font-family="monospace" font-size="11" fill="#e63946">R=2000µm</text>
<line x1="522.29" y1="370.19" x2="530.67" y2="370.19" stroke="#e63946" stroke-width="1"/>
<line x1="522.29" y1="365.19" x2="522.29" y2="375.19" stroke="#e63946" stroke-width="1"/>
<line x1="530.67" y1="365.19" x2="530.67" y2="375.19" stroke="#e63946" stroke-width="1"/>
<text x="526.48" y="358.19" text-anchor="middle" dominant-baseline="middle" font-family="monospace" font-size="11" fill="#e63946">GAP=100µm</text>
<circle cx="354.67" cy="378.19" r="4" fill="#1a1a2e"/>
<line x1="344.67" y1="378.19" x2="364.67" y2="378.19" stroke="#1a1a2e" stroke-width="1"/>
<line x1="354.67" y1="368.19" x2="354.67" y2="388.19" stroke="#1a1a2e" stroke-width="1"/>
<path d="M 413.33,378.19 A 58,58 0 0,0 407.52,352.74" fill="none" stroke="#e63946" stroke-width="1"/>
<text x="423.30" y="362.53" text-anchor="middle" dominant-baseline="middle" font-family="monospace" font-size="10" fill="#e63946">pitch=25.7°</text>
<text x="354.67" y="286.19" text-anchor="middle" dominant-baseline="middle" font-family="monospace" font-size="11" fill="#555">N=8 inlets</text>
<path d="M 594.36,378.19 A 239.70,239.70 0 0,0 114.97,378.19" fill="none" stroke="#aaa" stroke-width="1" stroke-dasharray="5,3"/>
<text x="354.67" y="135.14" text-anchor="middle" dominant-baseline="middle" font-family="monospace" font-size="10" fill="#888">180° span</text>
</svg>