<svg xmlns="http://www.w3.org/2000/svg" width="660" height="554" viewBox="0 0 660 554">
  <rect width="660" height="554" fill="white"/>
  <text x="330.0" y="22" text-anchor="middle" font-family="monospace" font-size="13" font-weight="bold" fill="#1a1a2e">CuttingMarks — parameters</text>
<polygon points="188.82,365.29 471.18,365.29 471.18,188.82 188.82,188.82" fill="#eef2ff" stroke="#1a1a2e" stroke-width="1.5" stroke-linejoin="miter"/>
<text x="330.0" y="277.1" text-anchor="middle" dominant-baseline="middle" font-family="monospace" font-size="13" fill="#1a1a2e">CHIP</text>
<polygon points="132.35,421.76 174.71,421.76 174.71,416.12 138.00,416.12 138.00,379.41 132.35,379.41" fill="#e63946" stroke="#e63946" stroke-width="1.5" stroke-linejoin="miter"/>
<polygon points="527.65,421.76 485.29,421.76 485.29,416.12 522.00,416.12 522.00,379.41 527.65,379.41" fill="#e63946" stroke="#e63946" stroke-width="1.5" stroke-linejoin="miter"/>
<polygon points="527.65,132.35 485.29,132.35 485.29,138.00 522.00,138.00 522.00,174.71 527.65,174.71" fill="#e63946" stroke="#e63946" stroke-width="1.5" stroke-linejoin="miter"/>
<polygon points="132.35,132.35 174.71,132.35 174.71,138.00 138.00,138.00 138.00,174.71 132.35,174.71" fill="#e63946" stroke="#e63946" stroke-width="1.5" stroke-linejoin="miter"/>
<polygon points="132.35,421.76 527.65,421.76 527.65,132.35 132.35,132.35" fill="none" stroke="#aaa" stroke-width="0.8" stroke-dasharray="6,3"/>
<line x1="188.82" y1="431.76" x2="188.82" y2="439.76" stroke="#e63946" stroke-width="1.0"/>
<line x1="132.35" y1="431.76" x2="132.35" y2="439.76" stroke="#e63946" stroke-width="1.0"/>
<line x1="188.82" y1="435.76" x2="132.35" y2="435.76" stroke="#e63946" stroke-width="1.0"/>
<text x="160.59" y="449.76" text-anchor="middle" font-family="monospace" font-size="11" fill="#e63946">MARGIN</text>
<line x1="132.35" y1="431.76" x2="132.35" y2="439.76" stroke="#e63946" stroke-width="1.0"/>
<line x1="174.71" y1="431.76" x2="174.71" y2="439.76" stroke="#e63946" stroke-width="1.0"/>
<line x1="132.35" y1="435.76" x2="174.71" y2="435.76" stroke="#e63946" stroke-width="1.0"/>
<text x="153.53" y="449.76" text-anchor="middle" font-family="monospace" font-size="11" fill="#e63946">MARK_LENGTH</text>
<line x1="132.35" y1="396.59" x2="132.35" y2="404.59" stroke="#e63946" stroke-width="1.0"/>
<line x1="138.00" y1="396.59" x2="138.00" y2="404.59" stroke="#e63946" stroke-width="1.0"/>
<line x1="132.35" y1="400.59" x2="138.00" y2="400.59" stroke="#e63946" stroke-width="1.0"/>
<text x="135.18" y="392.59" text-anchor="middle" font-family="monospace" font-size="11" fill="#e63946">MARK_WIDTH</text>
</svg>