<svg xmlns="http://www.w3.org/2000/svg" width="750" height="888" viewBox="0 0 750 888">
  <rect width="750" height="888" fill="white"/>
  <text x="375.0" y="22" text-anchor="middle" font-family="monospace" font-size="13" font-weight="bold" fill="#1a1a2e">Serpentine — parameters</text>
<polyline points="365.00,758.81 365.00,635.00 563.10,635.00 566.74,634.82 570.34,634.29 573.88,633.40 577.31,632.17 580.60,630.61 583.73,628.74 586.66,626.57 589.36,624.12 591.81,621.42 593.98,618.49 595.85,615.37 597.41,612.07 598.64,608.64 599.52,605.10 600.06,601.50 600.24,597.86 600.06,594.22 599.52,590.61 598.64,587.08 597.41,583.64 595.85,580.35 593.98,577.22 591.81,574.29 589.36,571.59 586.66,569.15 583.73,566.97 580.60,565.10 577.31,563.54 573.88,562.31 570.34,561.43 566.74,560.89 563.10,560.71 166.90,560.71 163.26,560.54 159.66,560.00 156.12,559.11 152.69,557.89 149.40,556.33 146.27,554.45 143.34,552.28 140.64,549.84 138.19,547.13 136.02,544.21 134.15,541.08 132.59,537.79 131.36,534.35 130.48,530.82 129.94,527.21 129.76,523.57 129.94,519.93 130.48,516.33 131.36,512.79 132.59,509.36 134.15,506.06 136.02,502.94 138.19,500.01 140.64,497.31 143.34,494.86 146.27,492.69 149.40,490.81 152.69,489.26 156.12,488.03 159.66,487.14 163.26,486.61 166.90,486.43 563.10,486.43 566.74,486.25 570.34,485.71 573.88,484.83 577.31,483.60 580.60,482.04 583.73,480.17 586.66,478.00 589.36,475.55 591.81,472.85 593.98,469.92 595.85,466.79 597.41,463.50 598.64,460.07 599.52,456.53 600.06,452.93 600.24,449.29 600.06,445.65 599.52,442.04 598.64,438.50 597.41,435.07 595.85,431.78 593.98,428.65 591.81,425.72 589.36,423.02 586.66,420.57 583.73,418.40 580.60,416.53 577.31,414.97 573.88,413.74 570.34,412.86 566.74,412.32 563.10,412.14 166.90,412.14 163.26,411.96 159.66,411.43 156.12,410.54 152.69,409.32 149.40,407.76 146.27,405.88 143.34,403.71 140.64,401.26 138.19,398.56 136.02,395.64 134.15,392.51 132.59,389.21 131.36,385.78 130.48,382.25 129.94,378.64 129.76,375.00 129.94,371.36 130.48,367.75 131.36,364.22 132.59,360.79 134.15,357.49 136.02,354.36 138.19,351.44 140.64,348.74 143.34,346.29 146.27,344.12 149.40,342.24 152.69,340.68 156.12,339.46 159.66,338.57 163.26,338.04 166.90,337.86 563.10,337.86 566.74,337.68 570.34,337.14 573.88,336.26 577.31,335.03 580.60,333.47 583.73,331.60 586.66,329.43 589.36,326.98 591.81,324.28 593.98,321.35 595.85,318.22 597.41,314.93 598.64,311.50 599.52,307.96 600.06,304.35 600.24,300.71 600.06,297.07 599.52,293.47 598.64,289.93 597.41,286.50 595.85,283.21 593.98,280.08 591.81,277.15 589.36,274.45 586.66,272.00 583.73,269.83 580.60,267.96 577.31,266.40 573.88,265.17 570.34,264.29 566.74,263.75 563.10,263.57 365.00,263.57 365.00,139.76" fill="none" stroke="#d0d8ff" stroke-width="24.76" stroke-linecap="round" stroke-linejoin="round"/>
<polyline points="365.00,758.81 365.00,635.00 563.10,635.00 566.74,634.82 570.34,634.29 573.88,633.40 577.31,632.17 580.60,630.61 583.73,628.74 586.66,626.57 589.36,624.12 591.81,621.42 593.98,618.49 595.85,615.37 597.41,612.07 598.64,608.64 599.52,605.10 600.06,601.50 600.24,597.86 600.06,594.22 599.52,590.61 598.64,587.08 597.41,583.64 595.85,580.35 593.98,577.22 591.81,574.29 589.36,571.59 586.66,569.15 583.73,566.97 580.60,565.10 577.31,563.54 573.88,562.31 570.34,561.43 566.74,560.89 563.10,560.71 166.90,560.71 163.26,560.54 159.66,560.00 156.12,559.11 152.69,557.89 149.40,556.33 146.27,554.45 143.34,552.28 140.64,549.84 138.19,547.13 136.02,544.21 134.15,541.08 132.59,537.79 131.36,534.35 130.48,530.82 129.94,527.21 129.76,523.57 129.94,519.93 130.48,516.33 131.36,512.79 132.59,509.36 134.15,506.06 136.02,502.94 138.19,500.01 140.64,497.31 143.34,494.86 146.27,492.69 149.40,490.81 152.69,489.26 156.12,488.03 159.66,487.14 163.26,486.61 166.90,486.43 563.10,486.43 566.74,486.25 570.34,485.71 573.88,484.83 577.31,483.60 580.60,482.04 583.73,480.17 586.66,478.00 589.36,475.55 591.81,472.85 593.98,469.92 595.85,466.79 597.41,463.50 598.64,460.07 599.52,456.53 600.06,452.93 600.24,449.29 600.06,445.65 599.52,442.04 598.64,438.50 597.41,435.07 595.85,431.78 593.98,428.65 591.81,425.72 589.36,423.02 586.66,420.57 583.73,418.40 580.60,416.53 577.31,414.97 573.88,413.74 570.34,412.86 566.74,412.32 563.10,412.14 166.90,412.14 163.26,411.96 159.66,411.43 156.12,410.54 152.69,409.32 149.40,407.76 146.27,405.88 143.34,403.71 140.64,401.26 138.19,398.56 136.02,395.64 134.15,392.51 132.59,389.21 131.36,385.78 130.48,382.25 129.94,378.64 129.76,375.00 129.94,371.36 130.48,367.75 131.36,364.22 132.59,360.79 134.15,357.49 136.02,354.36 138.19,351.44 140.64,348.74 143.34,346.29 146.27,344.12 149.40,342.24 152.69,340.68 156.12,339.46 159.66,338.57 163.26,338.04 166.90,337.86 563.10,337.86 566.74,337.68 570.34,337.14 573.88,336.26 577.31,335.03 580.60,333.47 583.73,331.60 586.66,329.43 589.36,326.98 591.81,324.28 593.98,321.35 595.85,318.22 597.41,314.93 598.64,311.50 599.52,307.96 600.06,304.35 600.24,300.71 600.06,297.07 599.52,293.47 598.64,289.93 597.41,286.50 595.85,283.21 593.98,280.08 591.81,277.15 589.36,274.45 586.66,272.00 583.73,269.83 580.60,267.96 577.31,266.40 573.88,265.17 570.34,264.29 566.74,263.75 563.10,263.57 365.00,263.57 365.00,139.76" fill="none" stroke="#3a4a8e" stroke-width="1.2" stroke-linecap="round" stroke-linejoin="round"/>
<line x1="117.38" y1="736.81" x2="117.38" y2="744.81" stroke="#e63946" stroke-width="1.0"/>
<line x1="612.62" y1="736.81" x2="612.62" y2="744.81" stroke="#e63946" stroke-width="1.0"/>
<line x1="117.38" y1="740.81" x2="612.62" y2="740.81" stroke="#e63946" stroke-width="1.0"/>
<text x="365.00" y="732.81" text-anchor="middle" font-family="monospace" font-size="11" fill="#e63946">EXT_WIDTH=1000µm</text>
<line x1="352.62" y1="696.90" x2="377.38" y2="696.90" stroke="#e63946" stroke-width="1"/>
<line x1="352.62" y1="693.90" x2="352.62" y2="699.90" stroke="#e63946" stroke-width="1"/>
<line x1="377.38" y1="693.90" x2="377.38" y2="699.90" stroke="#e63946" stroke-width="1"/>
<text x="381.38" y="700.90" font-family="monospace" font-size="10" fill="#e63946">W=50µm</text>
<line x1="334.62" y1="758.81" x2="342.62" y2="758.81" stroke="#e63946" stroke-width="1.0"/>
<line x1="334.62" y1="635.00" x2="342.62" y2="635.00" stroke="#e63946" stroke-width="1.0"/>
<line x1="338.62" y1="758.81" x2="338.62" y2="635.00" stroke="#e63946" stroke-width="1.0"/>
<text x="328.62" y="696.90" text-anchor="end" dominant-baseline="middle" font-family="monospace" font-size="11" fill="#e63946" transform="rotate(-90,328.62,696.90)">LEG=250µm</text>
<line x1="626.62" y1="635.00" x2="634.62" y2="635.00" stroke="#e63946" stroke-width="1.0"/>
<line x1="626.62" y1="560.71" x2="634.62" y2="560.71" stroke="#e63946" stroke-width="1.0"/>
<line x1="630.62" y1="635.00" x2="630.62" y2="560.71" stroke="#e63946" stroke-width="1.0"/>
<text x="640.62" y="597.86" text-anchor="start" dominant-baseline="middle" font-family="monospace" font-size="11" fill="#e63946" transform="rotate(-90,640.62,597.86)">PITCH=150µm</text>
<line x1="668.62" y1="635.00" x2="676.62" y2="635.00" stroke="#e63946" stroke-width="1.0"/>
<line x1="668.62" y1="263.57" x2="676.62" y2="263.57" stroke="#e63946" stroke-width="1.0"/>
<line x1="672.62" y1="635.00" x2="672.62" y2="263.57" stroke="#e63946" stroke-width="1.0"/>
<text x="682.62" y="449.29" text-anchor="start" dominant-baseline="middle" font-family="monospace" font-size="11" fill="#e63946" transform="rotate(-90,682.62,449.29)">(5)xPITCH</text>
<text x="375.0" y="870.0" text-anchor="middle" font-family="monospace" font-size="11" fill="#e63946">TOTAL_LENGTH=6478µm  |  N=6 runs  |  R=75µm</text>
</svg>