<svg xmlns="http://www.w3.org/2000/svg" width="678" height="580" viewBox="0 0 678 580">
  <rect width="678" height="580" fill="white"/>
  <text x="339.0" y="22" text-anchor="middle" font-family="monospace" font-size="13" font-weight="bold" fill="#1a1a2e">CrossJunction (X-type) — parameters</text>
<polygon points="311.18,278.82 311.18,100.00 333.53,100.00 333.53,278.82 355.88,256.47 568.24,256.47 568.24,323.53 355.88,323.53 333.53,301.18 333.53,480.00 311.18,480.00 311.18,301.18 300.00,312.35 110.00,312.35 110.00,267.65 300.00,267.65" fill="#eef2ff" stroke="#1a1a2e" stroke-width="1.8" stroke-linejoin="round"/>
<polygon points="300.00,278.82 355.88,278.82 355.88,301.18 300.00,301.18" fill="none" stroke="#888" stroke-width="0.8" stroke-dasharray="4,3"/>
<line x1="311.18" y1="81.00" x2="311.18" y2="91.00" stroke="#e63946" stroke-width="1"/>
<line x1="333.53" y1="81.00" x2="333.53" y2="91.00" stroke="#e63946" stroke-width="1"/>
<line x1="311.18" y1="86.00" x2="333.53" y2="86.00" stroke="#e63946" stroke-width="1"/>
<text x="322.35" y="78.00" text-anchor="middle" font-family="monospace" font-size="11" fill="#e63946">W_TOP=50µm</text>
<line x1="311.18" y1="489.00" x2="311.18" y2="499.00" stroke="#e63946" stroke-width="1"/>
<line x1="333.53" y1="489.00" x2="333.53" y2="499.00" stroke="#e63946" stroke-width="1"/>
<line x1="311.18" y1="494.00" x2="333.53" y2="494.00" stroke="#e63946" stroke-width="1"/>
<text x="322.35" y="508.00" text-anchor="middle" font-family="monospace" font-size="11" fill="#e63946">W_BOT=50µm</text>
<line x1="91.00" y1="267.65" x2="101.00" y2="267.65" stroke="#e63946" stroke-width="1"/>
<line x1="91.00" y1="312.35" x2="101.00" y2="312.35" stroke="#e63946" stroke-width="1"/>
<line x1="96.00" y1="267.65" x2="96.00" y2="312.35" stroke="#e63946" stroke-width="1"/>
<text x="86.00" y="290.00" text-anchor="end" dominant-baseline="middle" font-family="monospace" font-size="11" fill="#e63946" transform="rotate(-90,86.00,290.00)">W_LEFT=100µm</text>
<line x1="577.24" y1="256.47" x2="587.24" y2="256.47" stroke="#e63946" stroke-width="1"/>
<line x1="577.24" y1="323.53" x2="587.24" y2="323.53" stroke="#e63946" stroke-width="1"/>
<line x1="582.24" y1="256.47" x2="582.24" y2="323.53" stroke="#e63946" stroke-width="1"/>
<text x="592.24" y="290.00" text-anchor="start" dominant-baseline="middle" font-family="monospace" font-size="11" fill="#e63946" transform="rotate(-90,592.24,290.00)">W_RIGHT=150µm</text>
<line x1="344.32" y1="100.00" x2="354.32" y2="100.00" stroke="#e63946" stroke-width="1"/>
<line x1="344.32" y1="278.82" x2="354.32" y2="278.82" stroke="#e63946" stroke-width="1"/>
<line x1="349.32" y1="100.00" x2="349.32" y2="278.82" stroke="#e63946" stroke-width="1"/>
<text x="359.32" y="189.41" text-anchor="start" dominant-baseline="middle" font-family="monospace" font-size="11" fill="#e63946" transform="rotate(-90,359.32,189.41)">L_TOP=400µm</text>
<line x1="344.32" y1="301.18" x2="354.32" y2="301.18" stroke="#e63946" stroke-width="1"/>
<line x1="344.32" y1="480.00" x2="354.32" y2="480.00" stroke="#e63946" stroke-width="1"/>
<line x1="349.32" y1="301.18" x2="349.32" y2="480.00" stroke="#e63946" stroke-width="1"/>
<text x="359.32" y="390.59" text-anchor="start" dominant-baseline="middle" font-family="monospace" font-size="11" fill="#e63946" transform="rotate(-90,359.32,390.59)">L_BOT=400µm</text>
<line x1="110.00" y1="323.14" x2="110.00" y2="333.14" stroke="#e63946" stroke-width="1"/>
<line x1="300.00" y1="323.14" x2="300.00" y2="333.14" stroke="#e63946" stroke-width="1"/>
<line x1="110.00" y1="328.14" x2="300.00" y2="328.14" stroke="#e63946" stroke-width="1"/>
<text x="205.00" y="342.14" text-anchor="middle" font-family="monospace" font-size="11" fill="#e63946">L_LEFT=400µm</text>
<line x1="355.88" y1="334.32" x2="355.88" y2="344.32" stroke="#e63946" stroke-width="1"/>
<line x1="568.24" y1="334.32" x2="568.24" y2="344.32" stroke="#e63946" stroke-width="1"/>
<line x1="355.88" y1="339.32" x2="568.24" y2="339.32" stroke="#e63946" stroke-width="1"/>
<text x="462.06" y="353.32" text-anchor="middle" font-family="monospace" font-size="11" fill="#e63946">L_RIGHT=500µm</text>
<line x1="300.00" y1="263.82" x2="300.00" y2="273.82" stroke="#e63946" stroke-width="1"/>
<line x1="355.88" y1="263.82" x2="355.88" y2="273.82" stroke="#e63946" stroke-width="1"/>
<line x1="300.00" y1="268.82" x2="355.88" y2="268.82" stroke="#e63946" stroke-width="1"/>
<text x="327.94" y="260.82" text-anchor="middle" font-family="monospace" font-size="11" fill="#e63946">hl+hr=125µm</text>
<line x1="358.88" y1="278.82" x2="368.88" y2="278.82" stroke="#e63946" stroke-width="1"/>
<line x1="358.88" y1="301.18" x2="368.88" y2="301.18" stroke="#e63946" stroke-width="1"/>
<line x1="363.88" y1="278.82" x2="363.88" y2="301.18" stroke="#e63946" stroke-width="1"/>
<text x="373.88" y="290.00" text-anchor="start" dominant-baseline="middle" font-family="monospace" font-size="11" fill="#e63946" transform="rotate(-90,373.88,290.00)">ht+hb=50µm</text>
</svg>