<svg xmlns="http://www.w3.org/2000/svg" width="680" height="484" viewBox="0 0 680 484"><rect width="680" height="484" fill="white"/><text x="340.0" y="22" text-anchor="middle" font-family="monospace" font-size="13" font-weight="bold" fill="#1a1a2e">YJunction — parameters</text>
<polygon points="560.00,205.79 285.92,205.79 120.00,110.00 120.00,149.11 281.68,242.46 120.00,335.81 120.00,374.92 285.92,279.13 560.00,279.13" fill="#eef2ff" stroke="#1a1a2e" stroke-width="1.8" stroke-linejoin="round"/>
<circle cx="315.56" cy="242.46" r="3" fill="#1a1a2e"/>
<line x1="315.56" y1="242.46" x2="120.00" y2="129.56" stroke="#aaa" stroke-width="0.8" stroke-dasharray="5,3"/>
<line x1="315.56" y1="242.46" x2="120.00" y2="355.36" stroke="#aaa" stroke-width="0.8" stroke-dasharray="5,3"/>
<line x1="315.56" y1="242.46" x2="560.00" y2="242.46" stroke="#aaa" stroke-width="0.8" stroke-dasharray="5,3"/>
<line x1="101.00" y1="110.00" x2="111.00" y2="110.00" stroke="#e63946" stroke-width="1.0"/>
<line x1="101.00" y1="149.11" x2="111.00" y2="149.11" stroke="#e63946" stroke-width="1.0"/>
<line x1="106.00" y1="110.00" x2="106.00" y2="149.11" stroke="#e63946" stroke-width="1.0"/>
<text x="96.00" y="129.56" text-anchor="end" dominant-baseline="middle" font-family="monospace" font-size="11" fill="#e63946" transform="rotate(-90,96.00,129.56)">W_UP=80µm</text>
<line x1="101.00" y1="335.81" x2="111.00" y2="335.81" stroke="#e63946" stroke-width="1.0"/>
<line x1="101.00" y1="374.92" x2="111.00" y2="374.92" stroke="#e63946" stroke-width="1.0"/>
<line x1="106.00" y1="335.81" x2="106.00" y2="374.92" stroke="#e63946" stroke-width="1.0"/>
<text x="96.00" y="355.36" text-anchor="end" dominant-baseline="middle" font-family="monospace" font-size="11" fill="#e63946" transform="rotate(-90,96.00,355.36)">W_LO=80µm</text>
<line x1="569.00" y1="205.79" x2="579.00" y2="205.79" stroke="#e63946" stroke-width="1.0"/>
<line x1="569.00" y1="279.13" x2="579.00" y2="279.13" stroke="#e63946" stroke-width="1.0"/>
<line x1="574.00" y1="205.79" x2="574.00" y2="279.13" stroke="#e63946" stroke-width="1.0"/>
<text x="584.00" y="242.46" text-anchor="start" dominant-baseline="middle" font-family="monospace" font-size="11" fill="#e63946" transform="rotate(-90,584.00,242.46)">W_OUT=150µm</text>
<line x1="120.00" y1="108.56" x2="120.00" y2="118.56" stroke="#e63946" stroke-width="1.0"/>
<line x1="315.56" y1="108.56" x2="315.56" y2="118.56" stroke="#e63946" stroke-width="1.0"/>
<line x1="120.00" y1="113.56" x2="315.56" y2="113.56" stroke="#e63946" stroke-width="1.0"/>
<text x="217.78" y="105.56" text-anchor="middle" font-family="monospace" font-size="11" fill="#e63946">L_UP=400µm</text>
<line x1="120.00" y1="366.36" x2="120.00" y2="376.36" stroke="#e63946" stroke-width="1.0"/>
<line x1="315.56" y1="366.36" x2="315.56" y2="376.36" stroke="#e63946" stroke-width="1.0"/>
<line x1="120.00" y1="371.36" x2="315.56" y2="371.36" stroke="#e63946" stroke-width="1.0"/>
<text x="217.78" y="385.36" text-anchor="middle" font-family="monospace" font-size="11" fill="#e63946">L_LO=400µm</text>
<line x1="315.56" y1="288.13" x2="315.56" y2="298.13" stroke="#e63946" stroke-width="1.0"/>
<line x1="560.00" y1="288.13" x2="560.00" y2="298.13" stroke="#e63946" stroke-width="1.0"/>
<line x1="315.56" y1="293.13" x2="560.00" y2="293.13" stroke="#e63946" stroke-width="1.0"/>
<text x="437.78" y="307.13" text-anchor="middle" font-family="monospace" font-size="11" fill="#e63946">L_OUT=500µm</text>
<path d="M 265.56,242.46 A 50,50 0 0,1 272.25,217.46" fill="none" stroke="#e63946" stroke-width="1"/>
<text x="240.56" y="207.46" text-anchor="middle" font-family="monospace" font-size="11" fill="#e63946">θ=30°</text>
</svg>